<?xml version="1.0" encoding="UTF-8"?>
<svg width="149px" height="37px" viewBox="0 0 149 37" version="1.1" xmlns="http://www.w3.org/2000/svg" xmlns:xlink="http://www.w3.org/1999/xlink">
    <title>adjutant</title>
    <g id="Page-1" stroke="none" stroke-width="1" fill="none" fill-rule="evenodd">
        <g id="Profile-Picture" transform="translate(-31, -26)" fill="#484848" fill-rule="nonzero">
            <g id="adjutant" transform="translate(31.7812, 26.0938)">
                <path d="M6.953125,16.2695312 C7.43489583,15.5013021 8.07942708,14.8893229 8.88671875,14.4335938 C9.69401042,13.9908854 10.546875,13.7695312 11.4453125,13.7695312 C12.3697917,13.7695312 13.2291667,13.9908854 14.0234375,14.4335938 C14.8307292,14.8893229 15.4752604,15.5013021 15.9570312,16.2695312 C16.4388021,17.0377604 16.6796875,17.8776042 16.6796875,18.7890625 C16.6796875,20.1692708 16.1588542,21.3606771 15.1171875,22.3632812 C14.0885417,23.3528646 12.8645833,23.8476562 11.4453125,23.8476562 C10.0390625,23.8476562 8.82161458,23.3528646 7.79296875,22.3632812 C6.75130208,21.3606771 6.23046875,20.1692708 6.23046875,18.7890625 C6.23046875,17.8776042 6.47135417,17.0377604 6.953125,16.2695312 Z M16.6992188,28.90625 L22.890625,28.9648438 L22.9101562,18.7890625 C22.9101562,17.265625 22.6041667,15.8463542 21.9921875,14.53125 C21.3932292,13.2552083 20.546875,12.1223958 19.453125,11.1328125 C18.4114583,10.1692708 17.1875,9.42708333 15.78125,8.90625 C14.375,8.38541667 12.9296875,8.125 11.4453125,8.125 C9.94791667,8.125 8.50260417,8.39192708 7.109375,8.92578125 C5.71614583,9.43359375 4.4921875,10.1692708 3.4375,11.1328125 C2.36979167,12.0963542 1.52994792,13.2291667 0.91796875,14.53125 C0.305989583,15.8463542 0,17.265625 0,18.7890625 C0,20.8072917 0.52734375,22.6367188 1.58203125,24.2773438 C2.62369792,25.8919271 4.02994792,27.1679688 5.80078125,28.1054688 C7.57161458,29.0299479 9.453125,29.4921875 11.4453125,29.4921875 C12.9557292,29.4921875 14.4010417,29.2252604 15.78125,28.6914062 C15.9765625,28.6263021 16.2825521,28.5026042 16.6992188,28.3203125 L16.6992188,28.90625 Z" id="Shape"></path>
                <path d="M39.5664062,18.8085938 C39.5664062,17.8971354 39.3255208,17.0638021 38.84375,16.3085938 C38.3619792,15.5403646 37.7174479,14.9283854 36.9101562,14.4726562 C36.1158854,14.0169271 35.2630208,13.7890625 34.3515625,13.7890625 C33.4401042,13.7890625 32.5807292,14.0169271 31.7734375,14.4726562 C30.9661458,14.9283854 30.3216146,15.5403646 29.8398438,16.3085938 C29.3580729,17.0638021 29.1171875,17.8971354 29.1171875,18.8085938 C29.1171875,20.2018229 29.6380208,21.3997396 30.6796875,22.4023438 C31.7083333,23.4049479 32.9322917,23.90625 34.3515625,23.90625 C35.7578125,23.90625 36.9752604,23.4049479 38.0039062,22.4023438 C39.0455729,21.3997396 39.5664062,20.2018229 39.5664062,18.8085938 Z M45.796875,18.9453125 C45.7838542,20.9244792 45.2565104,22.7148438 44.2148438,24.3164062 C43.1731771,25.9440104 41.7669271,27.2200521 39.9960938,28.1445312 C38.2252604,29.0820312 36.34375,29.5507812 34.3515625,29.5507812 C32.828125,29.5507812 31.3828125,29.2838542 30.015625,28.75 C28.6614583,28.2552083 27.4309896,27.5065104 26.3242188,26.5039062 C25.2304688,25.5013021 24.3841146,24.3554688 23.7851562,23.0664062 C23.1861979,21.7773438 22.8867188,20.3580729 22.8867188,18.8085938 C22.8867188,17.2981771 23.1927083,15.8854167 23.8046875,14.5703125 C24.4036458,13.2682292 25.2434896,12.1289062 26.3242188,11.1523438 C27.4179688,10.1627604 28.6484375,9.4140625 30.015625,8.90625 C31.421875,8.3984375 32.8671875,8.14453125 34.3515625,8.14453125 C35.8229167,8.14453125 37.2617188,8.3984375 38.6679688,8.90625 L39.1171875,9.1015625 L39.5664062,9.296875 L39.5664062,1.0546875 L45.796875,1.07421875 L45.796875,18.9453125 Z" id="Shape"></path>
                <path d="M44.2304688,30.703125 C45.2981771,30.703125 46.1315104,30.625 46.7304688,30.46875 C47.3424479,30.3255208 47.8046875,30 48.1171875,29.4921875 C48.4296875,28.9973958 48.5859375,28.2552083 48.5859375,27.265625 L48.5859375,8.92578125 L54.8164062,8.92578125 L54.8164062,27.8710938 C54.8164062,29.3294271 54.6861979,30.5924479 54.4257812,31.6601562 C54.1393229,32.7278646 53.6835938,33.59375 53.0585938,34.2578125 C52.4075521,34.9739583 51.5286458,35.4947917 50.421875,35.8203125 C49.3151042,36.171875 47.9023438,36.3476562 46.1835938,36.3476562 L44.2304688,30.703125 Z M54.953125,3.26171875 C54.953125,3.88671875 54.8098958,4.44010417 54.5234375,4.921875 C54.2369792,5.40364583 53.8463542,5.79427083 53.3515625,6.09375 C52.8567708,6.39322917 52.3098958,6.54296875 51.7109375,6.54296875 C51.1119792,6.54296875 50.5716146,6.39973958 50.0898438,6.11328125 C49.5950521,5.81380208 49.2044271,5.41666667 48.9179688,4.921875 C48.6184896,4.40104167 48.46875,3.84765625 48.46875,3.26171875 C48.46875,2.66276042 48.6119792,2.11588542 48.8984375,1.62109375 C49.2109375,1.11328125 49.6080729,0.716145833 50.0898438,0.4296875 C50.5716146,0.143229167 51.1119792,0 51.7109375,0 C52.3098958,0 52.8567708,0.143229167 53.3515625,0.4296875 C53.8333333,0.716145833 54.2239583,1.11328125 54.5234375,1.62109375 C54.8098958,2.11588542 54.953125,2.66276042 54.953125,3.26171875 Z" id="Shape"></path>
                <path d="M65.4179688,23.8476562 C63.8294271,23.7955729 63.0351562,22.6953125 63.0351562,20.546875 L63.0351562,8.90625 L56.7851562,8.90625 L56.7851562,20.546875 C56.7851562,26.2109375 59.6627604,29.1992188 65.4179688,29.5117188 L65.7695312,29.5117188 C71.5247396,29.1992188 74.4023438,26.2109375 74.4023438,20.546875 L74.4023438,8.90625 L68.1523438,8.90625 L68.1523438,20.546875 C68.1523438,22.6953125 67.3580729,23.7955729 65.7695312,23.8476562 L65.4179688,23.8476562 Z" id="Path"></path>
                <path d="M78.5,14.2382812 L74.3789062,14.2382812 L75.7851562,8.88671875 L78.5,8.88671875 L78.5,1.19140625 L84.7304688,1.23046875 L84.7304688,8.88671875 L88.8710938,8.88671875 L87.484375,14.2382812 L84.7304688,14.2382812 L84.7304688,20.859375 C84.7304688,22.6302083 85.8372396,23.515625 88.0507812,23.515625 C88.7669271,23.515625 89.3138021,23.4309896 89.6914062,23.2617188 L87.8945312,29.4726562 C87.5690104,29.5247396 87.25,29.5507812 86.9375,29.5507812 C85.0755208,29.5507812 83.5260417,29.2513021 82.2890625,28.6523438 C81.0390625,28.0533854 80.0950521,27.1484375 79.4570312,25.9375 C78.8190104,24.7395833 78.5,23.2096354 78.5,21.3476562 L78.5,14.2382812 Z" id="Path"></path>
                <path d="M96.6210938,16.2695312 C97.1028646,15.5013021 97.7473958,14.8893229 98.5546875,14.4335938 C99.3619792,13.9908854 100.214844,13.7695312 101.113281,13.7695312 C102.03776,13.7695312 102.897135,13.9908854 103.691406,14.4335938 C104.498698,14.8893229 105.143229,15.5013021 105.625,16.2695312 C106.106771,17.0377604 106.347656,17.8776042 106.347656,18.7890625 C106.347656,20.1692708 105.826823,21.3606771 104.785156,22.3632812 C103.75651,23.3528646 102.532552,23.8476562 101.113281,23.8476562 C99.7070312,23.8476562 98.4895833,23.3528646 97.4609375,22.3632812 C96.4192708,21.3606771 95.8984375,20.1692708 95.8984375,18.7890625 C95.8984375,17.8776042 96.1393229,17.0377604 96.6210938,16.2695312 Z M106.367188,28.90625 L112.558594,28.9648438 L112.578125,18.7890625 C112.578125,17.265625 112.272135,15.8463542 111.660156,14.53125 C111.061198,13.2552083 110.214844,12.1223958 109.121094,11.1328125 C108.079427,10.1692708 106.855469,9.42708333 105.449219,8.90625 C104.042969,8.38541667 102.597656,8.125 101.113281,8.125 C99.6158854,8.125 98.1705729,8.39192708 96.7773438,8.92578125 C95.3841146,9.43359375 94.1601562,10.1692708 93.1054688,11.1328125 C92.0377604,12.0963542 91.1979167,13.2291667 90.5859375,14.53125 C89.9739583,15.8463542 89.6679688,17.265625 89.6679688,18.7890625 C89.6679688,20.8072917 90.1953125,22.6367188 91.25,24.2773438 C92.2916667,25.8919271 93.6979167,27.1679688 95.46875,28.1054688 C97.2395833,29.0299479 99.1210938,29.4921875 101.113281,29.4921875 C102.623698,29.4921875 104.06901,29.2252604 105.449219,28.6914062 C105.644531,28.6263021 105.950521,28.5026042 106.367188,28.3203125 L106.367188,28.90625 Z" id="Shape"></path>
                <path d="M122.539062,13.7695312 C124.127604,13.8346354 124.921875,14.9414062 124.921875,17.0898438 L124.921875,28.90625 L131.171875,28.90625 L131.171875,17.0898438 C131.171875,11.3997396 128.294271,8.41145833 122.539062,8.125 L122.1875,8.125 C116.432292,8.41145833 113.554688,11.3997396 113.554688,17.0898438 L113.554688,28.90625 L119.804688,28.90625 L119.804688,17.0898438 C119.804688,14.9414062 120.598958,13.8346354 122.1875,13.7695312 L122.539062,13.7695312 Z" id="Path"></path>
                <path d="M136.269531,14.2382812 L132.148438,14.2382812 L133.554688,8.88671875 L136.269531,8.88671875 L136.269531,1.19140625 L142.5,1.23046875 L142.5,8.88671875 L146.640625,8.88671875 L145.253906,14.2382812 L142.5,14.2382812 L142.5,20.859375 C142.5,22.6302083 143.606771,23.515625 145.820312,23.515625 C146.536458,23.515625 147.083333,23.4309896 147.460938,23.2617188 L145.664062,29.4726562 C145.338542,29.5247396 145.019531,29.5507812 144.707031,29.5507812 C142.845052,29.5507812 141.295573,29.2513021 140.058594,28.6523438 C138.808594,28.0533854 137.864583,27.1484375 137.226562,25.9375 C136.588542,24.7395833 136.269531,23.2096354 136.269531,21.3476562 L136.269531,14.2382812 Z" id="Path"></path>
            </g>
        </g>
    </g>
</svg>